<svg width="229" height="246" viewBox="0 0 229 246" fill="none" xmlns="http://www.w3.org/2000/svg">
<path d="M0 0H229V229H0V0Z" fill="white" fill-opacity="0.01"/>
<path fill-rule="evenodd" clip-rule="evenodd" d="M114.5 238.916C167.197 238.916 209.917 196.197 209.917 143.5C209.917 90.8025 167.197 48.083 114.5 48.083C61.8027 48.083 19.0833 90.8025 19.0833 143.5C19.0833 196.197 61.8027 238.916 114.5 238.916Z" stroke="black" stroke-width="13" stroke-linecap="round" stroke-linejoin="round"/>
<path d="M114.5 138.729C127.674 138.729 138.354 128.049 138.354 114.875C138.354 101.7 127.674 91.0205 114.5 91.0205C101.326 91.0205 90.6458 101.7 90.6458 114.875C90.6458 128.049 101.326 138.729 114.5 138.729Z" fill="white" stroke="black" stroke-width="13" stroke-linejoin="round"/>
<path d="M47.8132 211.875C49.453 187.013 70.1388 167.354 95.4166 167.354H133.583C158.828 167.354 179.493 186.961 181.18 211.777" stroke="black" stroke-width="13" stroke-linecap="round" stroke-linejoin="round"/>
</svg>
