<svg width="45" height="45" viewBox="0 0 45 45" fill="none" xmlns="http://www.w3.org/2000/svg">
<path d="M3 3L42 42" stroke="#3C3D3D" stroke-width="5" stroke-linecap="round" stroke-linejoin="round"/>
<path d="M19.25 19.6337C18.5758 20.3974 18.1667 21.401 18.1667 22.5C18.1667 24.893 20.1067 26.8333 22.5 26.8333C23.599 26.8333 24.6023 26.4242 25.3663 25.75" stroke="#3C3D3D" stroke-width="5" stroke-linecap="round" stroke-linejoin="round"/>
<path d="M12.4507 12.8824C8.80671 15.436 5.77104 19.0741 3 22.5001C7.09188 28.9806 14.4437 35.5001 22.5 35.5001C25.8581 35.5001 29.094 34.3673 32.0223 32.5768" stroke="#3C3D3D" stroke-width="5" stroke-linecap="round" stroke-linejoin="round"/>
<path d="M22.5 9.49988C31.1849 9.49988 37.0199 16.3426 42 22.4999C41.3099 23.5925 40.5273 24.6865 39.6643 25.7499" stroke="#3C3D3D" stroke-width="5" stroke-linecap="round" stroke-linejoin="round"/>
</svg>
