<svg width="229" height="229" viewBox="0 0 229 229" fill="none" xmlns="http://www.w3.org/2000/svg">
<path d="M0 0H229V229H0V0Z" fill="white" fill-opacity="0.01"/>
<path fill-rule="evenodd" clip-rule="evenodd" d="M114.5 209.916C167.197 209.916 209.917 167.197 209.917 114.5C209.917 61.8025 167.197 19.083 114.5 19.083C61.8027 19.083 19.0833 61.8025 19.0833 114.5C19.0833 167.197 61.8027 209.916 114.5 209.916Z" stroke="black" stroke-width="13" stroke-linecap="round" stroke-linejoin="round"/>
<path d="M114.5 109.729C127.674 109.729 138.354 99.0489 138.354 85.8747C138.354 72.7005 127.674 62.0205 114.5 62.0205C101.326 62.0205 90.6458 72.7005 90.6458 85.8747C90.6458 99.0489 101.326 109.729 114.5 109.729Z" fill="white" stroke="black" stroke-width="13" stroke-linejoin="round"/>
<path d="M47.8132 182.875C49.453 158.013 70.1388 138.354 95.4166 138.354H133.583C158.828 138.354 179.493 157.961 181.18 182.777" stroke="black" stroke-width="13" stroke-linecap="round" stroke-linejoin="round"/>
</svg>
