<svg width="205" height="205" viewBox="0 0 205 205" fill="none" xmlns="http://www.w3.org/2000/svg">
<path fill-rule="evenodd" clip-rule="evenodd" d="M102.5 197.916C155.197 197.916 197.917 155.197 197.917 102.5C197.917 49.8025 155.197 7.08301 102.5 7.08301C49.8027 7.08301 7.08325 49.8025 7.08325 102.5C7.08325 155.197 49.8027 197.916 102.5 197.916Z" stroke="black" stroke-width="13" stroke-linecap="round" stroke-linejoin="round"/>
<path d="M102.5 97.7288C115.674 97.7288 126.354 87.0489 126.354 73.8747C126.354 60.7005 115.674 50.0205 102.5 50.0205C89.3257 50.0205 78.6458 60.7005 78.6458 73.8747C78.6458 87.0489 89.3257 97.7288 102.5 97.7288Z" fill="white" stroke="black" stroke-width="13" stroke-linejoin="round"/>
<path d="M35.8132 170.875C37.453 146.013 58.1388 126.354 83.4166 126.354H121.583C146.828 126.354 167.493 145.961 169.18 170.777" stroke="black" stroke-width="13" stroke-linecap="round" stroke-linejoin="round"/>
</svg>
