<svg width="32" height="33" viewBox="0 0 32 33" fill="none" xmlns="http://www.w3.org/2000/svg">
<g clip-path="url(#clip0_72_106)">
<path d="M16.1073 3.03177C20.3002 3.03177 20.7975 3.04797 22.4543 3.12628C26.7101 3.32611 28.6979 5.40944 28.8916 9.76782C28.9675 11.4758 28.9819 11.9889 28.9819 16.3149C28.9819 20.6422 28.9662 21.1539 28.8916 22.8619C28.6966 27.2162 26.714 29.3036 22.4543 29.5034C20.7975 29.5817 20.3028 29.5979 16.1073 29.5979C11.9143 29.5979 11.417 29.5817 9.76156 29.5034C5.49533 29.3022 3.51794 27.2095 3.32425 22.8605C3.24835 21.1526 3.23265 20.6408 3.23265 16.3135C3.23265 11.9875 3.24966 11.4758 3.32425 9.76647C3.51925 5.40944 5.50187 3.32476 9.76156 3.12493C11.4183 3.04797 11.9143 3.03177 16.1073 3.03177ZM16.1073 0.111328C11.8423 0.111328 11.3084 0.130231 9.63332 0.208541C3.93017 0.478577 0.760585 3.74332 0.498853 9.6328C0.421642 11.3624 0.40332 11.9133 0.40332 16.3135C0.40332 20.7137 0.421642 21.266 0.497544 22.9942C0.759276 28.8783 3.92362 32.1484 9.63201 32.4185C11.3084 32.4968 11.8423 32.5157 16.1073 32.5157C20.3722 32.5157 20.9074 32.4968 22.5825 32.4185C28.2804 32.1484 31.4579 28.8837 31.7157 22.9942C31.7929 21.266 31.8112 20.7137 31.8112 16.3135C31.8112 11.9133 31.7929 11.3624 31.717 9.63416C31.4605 3.75547 28.2922 0.479928 22.5838 0.209891C20.9074 0.130231 20.3722 0.111328 16.1073 0.111328ZM16.1073 7.99369C11.6539 7.99369 8.04329 11.7188 8.04329 16.3135C8.04329 20.9082 11.6539 24.6347 16.1073 24.6347C20.5606 24.6347 24.1712 20.9095 24.1712 16.3135C24.1712 11.7188 20.5606 7.99369 16.1073 7.99369ZM16.1073 21.7142C13.2164 21.7142 10.8726 19.2974 10.8726 16.3135C10.8726 13.331 13.2164 10.9128 16.1073 10.9128C18.9981 10.9128 21.3419 13.331 21.3419 16.3135C21.3419 19.2974 18.9981 21.7142 16.1073 21.7142ZM24.4906 5.72133C23.4489 5.72133 22.6048 6.5922 22.6048 7.66559C22.6048 8.73899 23.4489 9.60985 24.4906 9.60985C25.5309 9.60985 26.3737 8.73899 26.3737 7.66559C26.3737 6.5922 25.5309 5.72133 24.4906 5.72133Z" fill="white"/>
</g>
<defs>
<clipPath id="clip0_72_106">
<rect width="31.4079" height="32.4043" fill="white" transform="translate(0.40332 0.111328)"/>
</clipPath>
</defs>
</svg>
