<svg width="34" height="35" viewBox="0 0 34 35" fill="none" xmlns="http://www.w3.org/2000/svg">
<g clip-path="url(#clip0_72_88)">
<path d="M25.2606 20.0488C25.1963 20.017 22.7903 18.7946 22.3628 18.6359C22.1882 18.5712 22.0012 18.5081 21.8024 18.5081C21.4775 18.5081 21.2046 18.6751 20.992 19.0032C20.7516 19.3718 20.0241 20.2493 19.7993 20.5114C19.7699 20.546 19.7298 20.5873 19.7058 20.5873C19.6843 20.5873 19.312 20.4291 19.1992 20.3786C16.6183 19.2219 14.6592 16.4403 14.3906 15.9713C14.3522 15.9038 14.3506 15.8732 14.3503 15.8732C14.3597 15.8375 14.4465 15.7477 14.4913 15.7014C14.6224 15.5676 14.7643 15.3913 14.9017 15.2207C14.9668 15.1399 15.0319 15.059 15.0959 14.9827C15.2952 14.7435 15.3839 14.5578 15.4868 14.3426L15.5407 14.2309C15.7918 13.716 15.5773 13.2816 15.508 13.1413C15.4511 13.0239 14.4352 10.4942 14.3272 10.2285C14.0674 9.58717 13.7242 9.28857 13.2473 9.28857C13.203 9.28857 13.2473 9.28857 13.0617 9.29664C12.8357 9.30648 11.6051 9.47364 11.061 9.82751C10.484 10.2028 9.50781 11.3992 9.50781 13.5032C9.50781 15.3968 10.6725 17.1848 11.1726 17.8648C11.1851 17.8819 11.2079 17.9167 11.241 17.9667C13.1561 20.8523 15.5435 22.9908 17.9638 23.9883C20.2938 24.9486 21.3971 25.0596 22.0244 25.0596H22.0245C22.2881 25.0596 22.4991 25.0382 22.6852 25.0193L22.8033 25.0077C23.6082 24.9341 25.3771 23.9884 25.7794 22.8348C26.0964 21.9262 26.1799 20.9335 25.9691 20.5732C25.8246 20.3282 25.5757 20.2049 25.2606 20.0488Z" fill="white"/>
<path d="M17.6341 0.483398C8.69595 0.483398 1.42422 7.92945 1.42422 17.0819C1.42422 20.0421 2.19207 22.9397 3.64665 25.4758L0.862535 33.949C0.810674 34.1069 0.849248 34.2816 0.962507 34.4006C1.04426 34.4867 1.15517 34.5331 1.26842 34.5331C1.31182 34.5331 1.35554 34.5264 1.39819 34.5123L9.96173 31.7048C12.3051 32.9966 14.9537 33.6784 17.6342 33.6784C26.5715 33.6785 33.8425 26.2333 33.8425 17.0819C33.8425 7.92945 26.5715 0.483398 17.6341 0.483398ZM17.6341 30.221C15.1119 30.221 12.6689 29.4695 10.569 28.0479C10.4983 28 10.4164 27.9754 10.3339 27.9754C10.2903 27.9754 10.2465 27.9823 10.204 27.9962L5.91419 29.4031L7.29902 25.1879C7.34381 25.0515 7.32141 24.901 7.23891 24.7847C5.63978 22.5304 4.79446 19.8669 4.79446 17.0819C4.79446 9.83601 10.5543 3.94099 17.634 3.94099C24.7128 3.94099 30.472 9.83601 30.472 17.0819C30.4721 24.3268 24.7131 30.221 17.6341 30.221Z" fill="white"/>
</g>
<defs>
<clipPath id="clip0_72_88">
<rect width="33.0027" height="34.0497" fill="white" transform="translate(0.839844 0.483398)"/>
</clipPath>
</defs>
</svg>
