<svg width="36" height="36" viewBox="0 0 36 36" fill="none" xmlns="http://www.w3.org/2000/svg">
<g clip-path="url(#clip0_72_19)">
<path d="M26.366 20.2845C26.2984 20.252 23.7705 19.0072 23.3213 18.8455C23.1379 18.7797 22.9414 18.7154 22.7325 18.7154C22.3911 18.7154 22.1044 18.8855 21.881 19.2197C21.6285 19.595 20.8641 20.4886 20.6279 20.7555C20.597 20.7908 20.5549 20.8329 20.5297 20.8329C20.5071 20.8329 20.1158 20.6718 19.9974 20.6203C17.2856 19.4423 15.2272 16.6096 14.945 16.132C14.9047 16.0633 14.903 16.0321 14.9027 16.0321C14.9126 15.9957 15.0038 15.9043 15.0508 15.8571C15.1885 15.7209 15.3377 15.5413 15.482 15.3676C15.5504 15.2853 15.6188 15.2029 15.686 15.1252C15.8954 14.8816 15.9886 14.6925 16.0967 14.4734L16.1534 14.3596C16.4172 13.8353 16.1919 13.3928 16.119 13.2499C16.0592 13.1304 14.9918 10.5542 14.8783 10.2836C14.6054 9.6305 14.2448 9.32642 13.7437 9.32642C13.6972 9.32642 13.7437 9.32642 13.5487 9.33463C13.3113 9.34465 12.0183 9.51488 11.4466 9.87526C10.8403 10.2575 9.8147 11.4759 9.8147 13.6185C9.8147 15.547 11.0385 17.3678 11.5639 18.0603C11.577 18.0777 11.6009 18.1132 11.6357 18.1641C13.6479 21.1027 16.1564 23.2805 18.6993 24.2964C21.1474 25.2743 22.3067 25.3873 22.9658 25.3873H22.9659C23.2428 25.3873 23.4645 25.3656 23.6601 25.3463L23.7841 25.3345C24.6298 25.2595 26.4884 24.2965 26.9111 23.1217C27.2441 22.1964 27.332 21.1854 27.1104 20.8185C26.9586 20.569 26.6971 20.4434 26.366 20.2845Z" fill="white"/>
<path d="M18.3533 0.359375C8.96211 0.359375 1.32177 7.9423 1.32177 17.2629C1.32177 20.2776 2.12854 23.2285 3.65685 25.8112L0.731605 34.4401C0.677115 34.601 0.717645 34.7789 0.836645 34.9C0.922546 34.9877 1.03907 35.035 1.15807 35.035C1.20367 35.035 1.2496 35.0281 1.29441 35.0138L10.2921 32.1547C12.7542 33.4702 15.5371 34.1646 18.3535 34.1646C27.7438 34.1647 35.3833 26.5826 35.3833 17.2629C35.3833 7.9423 27.7438 0.359375 18.3533 0.359375ZM18.3533 30.6436C15.7032 30.6436 13.1365 29.8783 10.9301 28.4305C10.8559 28.3818 10.7697 28.3568 10.6831 28.3568C10.6372 28.3568 10.5913 28.3638 10.5466 28.3779L6.03934 29.8107L7.49436 25.518C7.54142 25.3791 7.51789 25.2258 7.4312 25.1074C5.75101 22.8116 4.86284 20.0991 4.86284 17.2629C4.86284 9.88391 10.9146 3.88053 18.3532 3.88053C25.7909 3.88053 31.842 9.88391 31.842 17.2629C31.8422 24.6411 25.7911 30.6436 18.3533 30.6436Z" fill="white"/>
</g>
<defs>
<clipPath id="clip0_72_19">
<rect width="34.6756" height="34.6756" fill="white" transform="translate(0.707764 0.359375)"/>
</clipPath>
</defs>
</svg>
